<svg width="16" height="16" viewBox="0 0 16 16" fill="none" xmlns="http://www.w3.org/2000/svg">
<g clip-path="url(#clip0_3424_1611)">
<path d="M2.51246 9.19857L0 6.68601L2.1131 4.57294L4.76533 3.82422L6.32607 5.38499L2.51246 9.19857Z" fill="#515B7A"/>
<path d="M9.3109 15.9972L6.79834 13.4846L10.6118 9.67114L12.1752 11.2343L11.4238 13.8842L9.3109 15.9972Z" fill="#515B7A"/>
<path d="M0.0166016 15.3159L3.31969 12.0128L3.98142 12.6746L0.678332 15.9776L0.0166016 15.3159Z" fill="#6F7997"/>
<path d="M2.927 15.0886L4.66182 13.3538L5.32357 14.0156L3.58875 15.7504L2.927 15.0886Z" fill="#6F7997"/>
<path d="M0.244141 12.405L1.97887 10.6703L2.6406 11.332L0.905871 13.0668L0.244141 12.405Z" fill="#6F7997"/>
<path d="M7.81262 12.9152L3.08695 8.18945L1.8531 8.53931L1.05884 10.4114L5.55216 14.9049L7.46279 14.149L7.81262 12.9152Z" fill="#6F7997"/>
<path d="M14.9313 5.4598C16.1936 2.60485 15.9724 0.297352 15.9999 0.00425024C15.8273 0.0385986 10.6962 -0.449624 6.51201 3.8793L1.85254 8.53871L7.4623 14.1483L12.1215 9.48922C13.2938 8.35925 14.2654 6.96606 14.9313 5.4598Z" fill="#6F7997"/>
<path d="M8.46703 7.53613C7.13794 6.20705 8.06197 3.89111 9.97704 3.88989C11.8778 3.88849 12.8252 6.19945 11.487 7.53767C10.6549 8.36975 9.30014 8.36912 8.46703 7.53613Z" fill="#212632"/>
</g>
<defs>
<clipPath id="clip0_3424_1611">
<rect width="16" height="16" fill="white"/>
</clipPath>
</defs>
</svg>
