<svg width="58" height="38" viewBox="0 0 58 38" fill="none" xmlns="http://www.w3.org/2000/svg">
<path d="M18.8725 6.91609L13.5846 34.0726L12.8975 37.6278L48.1502 37.4634C49.7335 37.4485 51.1377 36.0444 51.6455 33.9681L57.9044 8.33516C58.2928 6.75178 57.4413 5.10864 56.2463 5.10864L20.5604 5.15346C19.7687 5.12358 19.0667 5.85552 18.8725 6.91609Z" fill="#303646"/>
<path d="M44.7757 32.2353L41.0413 2.15101C40.8919 0.911194 39.9061 0 38.7409 0L30.5551 0.0298747C29.9427 0.0298747 29.3751 0.283814 28.9419 0.746879L25.0581 4.88459L2.29323 5.00409C0.904038 5.00409 -0.171467 6.33353 0.0227217 7.81235L3.48824 35.6261C3.63762 36.851 4.6235 37.7771 5.77369 37.7771L45.4479 37.7025C49.8694 37.7921 50.2877 36.4925 50.2877 36.4925C45.2238 37.583 44.7757 32.2353 44.7757 32.2353Z" fill="#545E79"/>
<g opacity="0.5">
<path d="M27.6579 26.2154L26.3284 27.6495L16.0215 18.3882L17.3509 16.9392L27.6579 26.2154Z" fill="#AAB3C0"/>
<path d="M25.7615 16.6255L27.2403 17.9549L17.9192 27.9781L16.4404 26.6486L25.7615 16.6255Z" fill="#AAB3C0"/>
</g>
</svg>
