<svg width="35" height="35" viewBox="0 0 35 35" fill="none" xmlns="http://www.w3.org/2000/svg">
<path d="M4.22672 17.1216C13.3385 13.113 25.1299 8.22583 26.7575 7.5494C31.0271 5.77895 32.3371 6.11825 31.6839 10.0391C31.2148 12.8571 29.8613 22.1872 28.7825 27.9944C28.1423 31.4382 26.7061 31.8463 24.4477 30.3564C23.3616 29.6394 17.8799 26.0144 16.6902 25.1633C15.6041 24.3875 14.1063 23.4545 15.9848 21.6166C16.6532 20.9619 21.0351 16.7779 24.4491 13.5212C24.8965 13.0935 24.3346 12.391 23.8184 12.7339C19.2168 15.7854 12.8368 20.0209 12.0248 20.5726C10.7981 21.4056 9.62 21.7877 7.50517 21.1801C5.90727 20.7212 4.34635 20.1738 3.7388 19.965C1.39922 19.1617 1.95457 18.1213 4.22672 17.1216Z" fill="white"/>
</svg>
