<svg width="157" height="29" viewBox="0 0 157 29" fill="none" xmlns="http://www.w3.org/2000/svg">
<path d="M156.916 19.8041C157.138 19.2983 156.907 18.7085 156.402 18.4867L148.159 14.8723C147.653 14.6505 147.064 14.8807 146.842 15.3865C146.62 15.8923 146.85 16.4821 147.356 16.7039L154.683 19.9167L151.47 27.2432C151.248 27.749 151.478 28.3389 151.984 28.5607C152.49 28.7825 153.08 28.5522 153.301 28.0464L156.916 19.8041ZM1.15758 5.07028C48.7477 -2.52373 76.6811 5.42037 98.0457 13.1922C119.39 20.9567 134.653 28.8081 156.364 20.3341L155.636 18.471C134.781 26.6113 120.344 19.1754 98.7294 11.3127C77.1353 3.45738 48.8515 -4.56559 0.842423 3.09527L1.15758 5.07028Z" fill="#30CA4C"/>
</svg>
