<svg width="960" height="1100" viewBox="0 0 960 1100" fill="none" xmlns="http://www.w3.org/2000/svg">
<rect width="960" height="1100" fill="#30CA4C"/>
<g opacity="0.1">
<mask id="mask0_2_2" style="mask-type:alpha" maskUnits="userSpaceOnUse" x="0" y="0" width="960" height="1100">
<path d="M960 336.932V425.702L935.904 406.672L960 336.932Z" fill="#F6F7FB"/>
<path d="M903.361 0H944.736L960 7.69999V69.0799L903.361 18.7V0Z" fill="#F6F7FB"/>
<path d="M960 682.77V718.52L935.904 681.56L960 682.77Z" fill="#F6F7FB"/>
<path d="M960 800.688V852.828L935.904 797.058L960 800.688Z" fill="#F6F7FB"/>
<path d="M0.0106227 965.248V940.718L3.85059 949.298L0.0106227 965.248Z" fill="#F6F7FB"/>
<path d="M0.0107231 648.669V549.999L16.3306 648.999L0.0107231 648.669Z" fill="#F6F7FB"/>
<path d="M0.00139523 235.071V155.211L10.9453 220.111L0.00139523 235.071Z" fill="#F6F7FB"/>
<path d="M0.0135956 550V471.351L65.293 515.901L0.0135956 550Z" fill="#F6F7FB"/>
<path d="M700.125 1100H627.358L668.734 1069.2L700.125 1100Z" fill="#F6F7FB"/>
<path d="M852.481 977.9L800.161 1100H749.186L797.761 933.9L852.481 977.9Z" fill="#F6F7FB"/>
<path d="M842.874 1079.1L859.29 1100H831.834L842.874 1079.1Z" fill="#F6F7FB"/>
<path d="M189.117 897.597L222.141 915.197L167.614 1100H59.3266L77.7585 1047.2L120.958 1022.01L98.8783 1087.9L140.158 1085.7L178.653 952.597L65.2786 1010.9L34.1749 1100H1.91922L32.6389 977.897L189.117 897.597Z" fill="#F6F7FB"/>
<path d="M610.573 1086.8L592.045 1100H504.014L526.478 1080.2L610.573 1086.8Z" fill="#F6F7FB"/>
<path d="M352.317 1028.5L386.876 1062.05L426.332 949.3L456.956 1018.05L405.116 1076.9L436.892 1100H383.036L346.173 1069.2L352.317 1028.5Z" fill="#F6F7FB"/>
<path d="M304.336 927.295L363.855 950.395L392.655 823.896L466.958 876.696L598.093 722.696L567.373 603.896L647.34 644.266L624.973 744.256L460.814 964.695L414.735 889.896L374.415 1008.7L331.215 1004.3L325.455 1079.1L349.935 1100H292.528L286.192 1094.61L304.336 927.295Z" fill="#F6F7FB"/>
<path d="M944.735 1100H903.36V1079.1L944.735 1100Z" fill="#F6F7FB"/>
<path d="M317.764 79.9699L186.342 30.69L195.366 0H253.829L338.116 63.6899L317.764 79.9699Z" fill="#F6F7FB"/>
<path d="M861.121 1056L874.561 919.598L728.642 890.999L732.482 700.699L668.451 963.928L616.803 957.768L678.627 790.459L517.444 1025.2L720.962 982.298L699.842 929.058L768.002 932.138L734.786 1037.63L450.245 1069.2L720.962 640.199L527.044 563.199L565.444 684.199L494.404 670.999L454.373 757.569L383.046 725.669L480.005 629.199L511.684 637.999L480.005 503.799L782.402 595.099L767.042 853.599L916.8 868.999L892.801 1014.2H921.6L935.904 886.599L960 940.718V965.248L937.92 1057.1L861.121 1056Z" fill="#F6F7FB"/>
<path d="M699.837 318.559V371.359L750.429 314.269L569.183 222.859L631.102 181.609L795.165 309.869L759.261 399.409L713.181 410.959L668.542 527.998L608.062 513.258L681.502 406.009L639.838 389.509L576.383 503.798L508.703 483.558L639.838 335.059L699.837 318.559Z" fill="#F6F7FB"/>
<path d="M861.119 127.6L713.281 178.2L831.647 246.84L819.168 293.15L646.561 166.54L763.2 98.9999L680.065 23.21L566.498 107.58L590.402 144.1L681.505 56.2099L720.96 94.5999L568.994 193.82L538.466 129.03L490.659 158.07L524.546 208.01L478.467 237.16L460.035 177.76L409.924 213.4L480.003 270.6L546.242 235.4L642.241 299.2L483.747 471.349L350.404 527.999L319.684 444.399L465.507 444.949L571.202 310.2L523.202 277.2L480.003 305.25L343.396 211.53L627.361 0H700.129L738.24 37.3999L749.184 0H800.16L774.72 59.3999L861.119 127.6Z" fill="#F6F7FB"/>
<path d="M304.317 100.869L183.166 216.479L372.668 334.728L356.157 354.858H279.549L231.358 307.998L159.359 453.198L115.199 419.098L200.638 291.498L158.303 257.068L88.3192 395.998L44.8316 362.448L215.806 118.799L142.943 106.809L115.679 159.499L150.815 166.869L111.839 225.499L96.9591 207.899L13.4399 383.898L157.343 493.458L210.622 425.808L229.342 503.798L145.823 541.308L3.05176e-05 425.698V336.928L100.799 44.9888L304.317 100.869Z" fill="#F6F7FB"/>
<path d="M372.673 777.699L358.081 897.598L299.521 883.298L196.802 776.599L242.306 768.899L189.122 622.599L460.8 503.799L479.999 608.299L449.28 597.299L372.673 709.499L324.481 634.699L368.641 597.299L372.673 650.099L436.8 541.309L234.242 641.299L292.801 771.099L259.202 799.699L334.561 842.599L343.297 768.239L263.042 653.399L305.281 645.699L362.881 744.259L466.944 776.599L503.999 701.799L559.679 724.899L456.96 834.899L372.673 777.699Z" fill="#F6F7FB"/>
<path d="M895.681 734.799L851.521 749.099L898.561 601.369L935.904 603.899L913.92 527.999L936.384 503.799L816.001 441.099L776.546 489.499L893.761 527.999L823.681 761.199L832.321 796.399L897.601 767.359L908.16 842.599L796.802 830.499L795.842 757.899L829.921 562.099L699.842 538.999L912 211.2L906.241 180.95L840.001 222.2L776.642 193.6L903.361 138.6L809.281 42.8999L831.841 0H859.297L954.24 121L960 155.21V235.07L844.801 392.699L881.281 423.499L875.521 382.799L907.201 340.009L944.64 331.869L910.08 406.009L923.616 446.489L960 471.349V648.669L914.88 647.679L895.681 734.799Z" fill="#F6F7FB"/>
<path d="M88.3352 16.5L25.9357 187L16.0479 124.19L59.3434 0H167.63L159.374 28.16L88.3352 16.5Z" fill="#F6F7FB"/>
<path d="M0.0001297 69.0799V7.69999L1.92011 0H34.1758L7.68006 75.8999L0.0001297 69.0799Z" fill="#F6F7FB"/>
<path d="M36.3878 549.558L151.587 567.708L268.225 527.998L232.706 388.408L508.703 354.858L456.864 423.058L276.865 417.558L327.265 546.258L161.667 610.608L210.626 755.808L161.667 767.358L288.385 897.708L242.306 1091.31L253.826 1100H195.362L250.946 910.908L101.187 744.258L164.546 729.408L125.667 610.608L78.1473 605.658L122.787 706.308L39.2677 726.108L164.546 884.508L39.2677 943.908L0.00405884 852.828V800.688L37.8277 806.408L50.7876 889.458L93.9872 863.058L0.00405884 718.518V682.768L72.3874 686.508L36.3878 549.558Z" fill="#F6F7FB"/>
<path d="M466.949 318.559L426.629 340.009L222.151 214.61L386.214 79.9698L292.519 0H349.926L420.869 60.4999L440.645 48.0699L383.046 0H436.901L473.765 26.84L504.004 0H592.036L295.974 210.87L466.949 318.559Z" fill="#F6F7FB"/>
</mask>
<g mask="url(#mask0_2_2)">
<rect width="960" height="1100" transform="matrix(-1 0 0 1 960 0)" fill="url(#paint0_linear_2_2)"/>
</g>
</g>
<defs>
<linearGradient id="paint0_linear_2_2" x1="480" y1="0" x2="480" y2="1100" gradientUnits="userSpaceOnUse">
<stop stop-color="#212531" stop-opacity="0.42"/>
<stop offset="1" stop-color="#212531" stop-opacity="0"/>
</linearGradient>
</defs>
</svg>
