<svg width="22" height="22" viewBox="0 0 22 22" fill="none" xmlns="http://www.w3.org/2000/svg">
<path fill-rule="evenodd" clip-rule="evenodd" d="M10.6071 3.86959C12.6457 3.86959 14.2763 5.48999 14.2763 7.46205C14.2763 9.43411 12.6457 11.0545 10.6071 11.0545C8.56862 11.0545 6.93799 9.43411 6.93799 7.46205C6.93799 5.48999 8.56862 3.86959 10.6071 3.86959ZM15.7299 7.46205C15.7299 4.6632 13.4242 2.41602 10.6071 2.41602C7.79006 2.41602 5.48442 4.6632 5.48442 7.46205C5.48442 10.2609 7.79006 12.5081 10.6071 12.5081C13.4242 12.5081 15.7299 10.2609 15.7299 7.46205ZM10.6071 15.5704C14.2782 15.5704 17.4303 17.3947 19.0213 20.0195C19.2294 20.3628 19.6763 20.4724 20.0196 20.2643C20.3628 20.0563 20.4724 19.6093 20.2644 19.2661C18.3916 16.1764 14.7501 14.1168 10.6071 14.1168C6.46418 14.1168 2.82271 16.1764 0.949909 19.2661C0.741846 19.6093 0.85144 20.0563 1.1947 20.2643C1.53796 20.4724 1.98489 20.3628 2.19295 20.0195C3.78401 17.3947 6.93613 15.5704 10.6071 15.5704Z" fill="white"/>
</svg>
