<svg width="20" height="20" viewBox="0 0 20 20" fill="none" xmlns="http://www.w3.org/2000/svg">
<g clip-path="url(#clip0_3621_250)">
<path d="M17.4308 0.537231C18.5354 0.537231 19.4308 1.43266 19.4308 2.53723V14.6755L19.3776 14.7287L19.3244 14.6755L14.8138 19.3564L14.867 19.4043L14.8138 19.4628H2.56909C1.46452 19.4628 0.569092 18.5673 0.569092 17.4628V2.53723C0.569092 1.43266 1.46452 0.537231 2.56909 0.537231H17.4308Z" fill="#6F7997"/>
<path d="M19.3777 14.7287L14.867 19.4043L14.8138 19.3564V16.6755C14.8138 15.571 15.7093 14.6755 16.8138 14.6755H19.3245L19.3777 14.7287Z" fill="#99A7D1"/>
<rect x="5" y="6" width="11" height="1" fill="white"/>
<rect x="5" y="9" width="11" height="1" fill="white"/>
<rect x="5" y="12" width="7" height="1" fill="white"/>
</g>
<defs>
<clipPath id="clip0_3621_250">
<rect width="20" height="20" fill="white"/>
</clipPath>
</defs>
</svg>
