<svg width="24" height="24" viewBox="0 0 24 24" fill="none" xmlns="http://www.w3.org/2000/svg">
<g clip-path="url(#clip0_3633_9069)">
<path d="M1.39325 11.2929L2.80746 9.8787L4.22167 11.2929L9.17142 6.34316C10.1496 5.365 11.3134 4.79047 12.6628 4.61959C14.0122 4.44871 15.2761 4.71682 16.4546 5.42392L16.9496 4.92895C17.2442 4.63432 17.5978 4.48701 18.0103 4.48701C18.4227 4.48701 18.7763 4.63432 19.0709 4.92895C19.3655 5.22358 19.5129 5.57713 19.5129 5.98961C19.5129 6.40209 19.3655 6.75564 19.0709 7.05027L18.5759 7.54524C19.283 8.72375 19.5512 9.98771 19.3803 11.3371C19.2094 12.6865 18.6349 13.8503 17.6567 14.8284L12.707 19.7782L14.1212 21.1924L12.707 22.6066L1.39325 11.2929ZM4.92878 19.0711C4.53987 18.6822 4.34542 18.2108 4.34542 17.6569C4.34542 17.103 4.53987 16.6316 4.92878 16.2427L7.75721 19.0711C7.3683 19.46 6.89689 19.6544 6.34299 19.6544C5.78909 19.6544 5.31769 19.46 4.92878 19.0711Z" fill="white"/>
</g>
<defs>
<clipPath id="clip0_3633_9069">
<rect width="24" height="24" fill="white"/>
</clipPath>
</defs>
</svg>
