<svg width="16" height="16" viewBox="0 0 16 16" fill="none" xmlns="http://www.w3.org/2000/svg">
<g clip-path="url(#clip0_3424_3396)">
<path d="M2.51246 9.19857L0 6.68601L2.1131 4.57294L4.76533 3.82422L6.32607 5.38499L2.51246 9.19857Z" fill="#C3DAFD"/>
<path d="M9.31102 15.9972L6.79846 13.4846L10.6119 9.67114L12.1753 11.2343L11.424 13.8842L9.31102 15.9972Z" fill="#A1B8D8"/>
<path d="M0.0166016 15.3159L3.31969 12.0128L3.98142 12.6746L0.678332 15.9776L0.0166016 15.3159Z" fill="#ECC443"/>
<path d="M0.351318 15.6492L3.6544 12.3461L3.98201 12.6737L0.678925 15.9768L0.351318 15.6492Z" fill="#E39069"/>
<path d="M2.92712 15.0886L4.66194 13.3538L5.32369 14.0156L3.58888 15.7504L2.92712 15.0886Z" fill="#E39069"/>
<path d="M0.244263 12.405L1.97899 10.6703L2.64072 11.332L0.905993 13.0668L0.244263 12.405Z" fill="#ECC443"/>
<path d="M7.81262 12.9152L3.08695 8.18945L1.8531 8.53931L1.05884 10.4114L5.55216 14.9049L7.46279 14.149L7.81262 12.9152Z" fill="#2B4CA1"/>
<path d="M5.32559 10.6797C5.05431 10.951 3.33217 12.6732 3.32629 12.679C3.53104 12.8837 5.43455 14.7872 5.55225 14.9049L7.46288 14.1491L7.68698 13.041L5.32559 10.6797Z" fill="#213B82"/>
<path d="M14.9315 5.4598C16.1938 2.60485 15.9725 0.297352 16 0.00425024C15.8274 0.0385986 10.6963 -0.449624 6.51213 3.8793L1.85266 8.53871L7.46242 14.1483L12.1216 9.48922C13.2939 8.35925 14.2655 6.96606 14.9315 5.4598Z" fill="#E4F3FF"/>
<path d="M14.9314 5.45994C16.1937 2.605 15.9725 0.297497 16 0.00439453C15.9998 0.00442579 15.9993 0.00442579 15.9991 0.00448829L4.65869 11.3449L7.46241 14.1485L12.1216 9.48936C13.2939 8.3594 14.2655 6.96621 14.9314 5.45994Z" fill="#C3DAFD"/>
<path d="M8.46703 7.53613C7.13794 6.20705 8.06197 3.89111 9.97704 3.88989C11.8778 3.88849 12.8252 6.19945 11.487 7.53767C10.6549 8.36975 9.30014 8.36912 8.46703 7.53613Z" fill="#84D9F3"/>
<path d="M11.4894 4.51562L8.46802 7.537C9.30119 8.36889 10.6551 8.36921 11.4869 7.5375C12.3874 6.63704 12.2529 5.29607 11.4894 4.51562Z" fill="#77B0FB"/>
</g>
<defs>
<clipPath id="clip0_3424_3396">
<rect width="16" height="16" fill="white"/>
</clipPath>
</defs>
</svg>
