<svg width="26" height="26" viewBox="0 0 26 26" fill="none" xmlns="http://www.w3.org/2000/svg">
<path fill-rule="evenodd" clip-rule="evenodd" d="M12.5356 4.57333C14.9448 4.57333 16.8719 6.48835 16.8719 8.81897C16.8719 11.1496 14.9448 13.0646 12.5356 13.0646C10.1264 13.0646 8.19934 11.1496 8.19934 8.81897C8.19934 6.48835 10.1264 4.57333 12.5356 4.57333ZM18.5897 8.81897C18.5897 5.51123 15.8649 2.85547 12.5356 2.85547C9.20633 2.85547 6.48149 5.51123 6.48149 8.81897C6.48149 12.1267 9.20633 14.7825 12.5356 14.7825C15.8649 14.7825 18.5897 12.1267 18.5897 8.81897ZM12.5356 18.4016C16.8741 18.4016 20.5993 20.5575 22.4797 23.6596C22.7256 24.0653 23.2537 24.1948 23.6594 23.9489C24.0651 23.703 24.1946 23.1748 23.9487 22.7692C21.7354 19.1177 17.4318 16.6837 12.5356 16.6837C7.63939 16.6837 3.33582 19.1177 1.12252 22.7692C0.876625 23.1748 1.00615 23.703 1.41181 23.9489C1.81748 24.1948 2.34568 24.0653 2.59157 23.6596C4.47191 20.5575 8.19714 18.4016 12.5356 18.4016Z" fill="white"/>
</svg>
