<svg width="960" height="1100" viewBox="0 0 960 1100" fill="none" xmlns="http://www.w3.org/2000/svg">
<rect width="960" height="1100" fill="#212531"/>
<g opacity="0.03">
<mask id="mask0_2_3" style="mask-type:alpha" maskUnits="userSpaceOnUse" x="0" y="0" width="960" height="1100">
<path d="M0 336.932V425.702L24.0958 406.672L0 336.932Z" fill="#F6F7FB"/>
<path d="M56.6395 0H15.2639L0 7.69999V69.0799L56.6395 18.7V0Z" fill="#F6F7FB"/>
<path d="M0 682.77V718.52L24.0958 681.56L0 682.77Z" fill="#F6F7FB"/>
<path d="M0 800.688V852.828L24.0958 797.058L0 800.688Z" fill="#F6F7FB"/>
<path d="M959.989 965.248V940.718L956.149 949.298L959.989 965.248Z" fill="#F6F7FB"/>
<path d="M959.989 648.669V549.999L943.669 648.999L959.989 648.669Z" fill="#F6F7FB"/>
<path d="M959.999 235.071V155.211L949.055 220.111L959.999 235.071Z" fill="#F6F7FB"/>
<path d="M959.986 550V471.351L894.707 515.901L959.986 550Z" fill="#F6F7FB"/>
<path d="M259.875 1100H332.642L291.266 1069.2L259.875 1100Z" fill="#F6F7FB"/>
<path d="M107.519 977.9L159.839 1100H210.814L162.239 933.9L107.519 977.9Z" fill="#F6F7FB"/>
<path d="M117.126 1079.1L100.71 1100H128.166L117.126 1079.1Z" fill="#F6F7FB"/>
<path d="M770.883 897.597L737.859 915.197L792.386 1100H900.673L882.242 1047.2L839.042 1022.01L861.122 1087.9L819.842 1085.7L781.347 952.597L894.721 1010.9L925.825 1100H958.081L927.361 977.897L770.883 897.597Z" fill="#F6F7FB"/>
<path d="M349.427 1086.8L367.955 1100H455.986L433.522 1080.2L349.427 1086.8Z" fill="#F6F7FB"/>
<path d="M607.683 1028.5L573.124 1062.05L533.668 949.3L503.044 1018.05L554.884 1076.9L523.108 1100H576.964L613.827 1069.2L607.683 1028.5Z" fill="#F6F7FB"/>
<path d="M655.664 927.295L596.145 950.395L567.345 823.896L493.042 876.696L361.907 722.696L392.627 603.896L312.66 644.266L335.027 744.256L499.186 964.695L545.265 889.896L585.585 1008.7L628.785 1004.3L634.545 1079.1L610.065 1100H667.472L673.808 1094.61L655.664 927.295Z" fill="#F6F7FB"/>
<path d="M15.2646 1100H56.6403V1079.1L15.2646 1100Z" fill="#F6F7FB"/>
<path d="M642.236 79.9699L773.658 30.69L764.634 0H706.171L621.884 63.6899L642.236 79.9699Z" fill="#F6F7FB"/>
<path d="M98.8791 1056L85.4392 919.598L231.358 890.999L227.518 700.699L291.549 963.928L343.197 957.768L281.373 790.459L442.556 1025.2L239.038 982.298L260.158 929.058L191.998 932.138L225.214 1037.63L509.755 1069.2L239.038 640.199L432.956 563.199L394.556 684.199L465.596 670.999L505.627 757.569L576.954 725.669L479.995 629.199L448.316 637.999L479.995 503.799L177.598 595.099L192.958 853.599L43.1996 868.999L67.1994 1014.2H38.3996L24.0958 886.599L0 940.718V965.248L22.0798 1057.1L98.8791 1056Z" fill="#F6F7FB"/>
<path d="M260.163 318.559V371.359L209.571 314.269L390.817 222.859L328.898 181.609L164.835 309.869L200.739 399.409L246.819 410.959L291.458 527.998L351.938 513.258L278.498 406.009L320.162 389.509L383.617 503.798L451.297 483.558L320.162 335.059L260.163 318.559Z" fill="#F6F7FB"/>
<path d="M98.8809 127.6L246.719 178.2L128.353 246.84L140.832 293.15L313.439 166.54L196.8 98.9999L279.935 23.21L393.502 107.58L369.598 144.1L278.495 56.2099L239.04 94.5999L391.006 193.82L421.534 129.03L469.341 158.07L435.454 208.01L481.533 237.16L499.965 177.76L550.076 213.4L479.997 270.6L413.758 235.4L317.759 299.2L476.253 471.349L609.596 527.999L640.316 444.399L494.493 444.949L388.798 310.2L436.798 277.2L479.997 305.25L616.604 211.53L332.639 0H259.871L221.76 37.3999L210.816 0H159.84L185.28 59.3999L98.8809 127.6Z" fill="#F6F7FB"/>
<path d="M655.683 100.869L776.834 216.479L587.332 334.728L603.843 354.858H680.451L728.642 307.998L800.641 453.198L844.801 419.098L759.362 291.498L801.697 257.068L871.681 395.998L915.168 362.448L744.194 118.799L817.057 106.809L844.321 159.499L809.185 166.869L848.161 225.499L863.041 207.899L946.56 383.898L802.657 493.458L749.378 425.808L730.658 503.798L814.177 541.308L960 425.698V336.928L859.201 44.9888L655.683 100.869Z" fill="#F6F7FB"/>
<path d="M587.327 777.699L601.919 897.598L660.479 883.298L763.198 776.599L717.694 768.899L770.878 622.599L499.2 503.799L480.001 608.299L510.72 597.299L587.327 709.499L635.519 634.699L591.359 597.299L587.327 650.099L523.2 541.309L725.758 641.299L667.199 771.099L700.798 799.699L625.439 842.599L616.703 768.239L696.958 653.399L654.719 645.699L597.119 744.259L493.056 776.599L456.001 701.799L400.321 724.899L503.04 834.899L587.327 777.699Z" fill="#F6F7FB"/>
<path d="M64.3194 734.799L108.479 749.099L61.4394 601.369L24.0958 603.899L46.0796 527.999L23.6158 503.799L143.999 441.099L183.454 489.499L66.2394 527.999L136.319 761.199L127.679 796.399L62.3994 767.359L51.8395 842.599L163.198 830.499L164.158 757.899L130.079 562.099L260.158 538.999L47.9995 211.2L53.7595 180.95L119.999 222.2L183.358 193.6L56.6395 138.6L150.719 42.8999L128.159 0H100.703L5.75994 121L0 155.21V235.07L115.199 392.699L78.7192 423.499L84.4792 382.799L52.7995 340.009L15.3599 331.869L49.9195 406.009L36.3837 446.489L0 471.349V648.669L45.1196 647.679L64.3194 734.799Z" fill="#F6F7FB"/>
<path d="M871.665 16.5L934.064 187L943.952 124.19L900.657 0H792.37L800.626 28.16L871.665 16.5Z" fill="#F6F7FB"/>
<path d="M960 69.0799V7.69999L958.08 0H925.824L952.32 75.8999L960 69.0799Z" fill="#F6F7FB"/>
<path d="M923.612 549.558L808.413 567.708L691.775 527.998L727.294 388.408L451.297 354.858L503.136 423.058L683.135 417.558L632.735 546.258L798.333 610.608L749.374 755.808L798.333 767.358L671.615 897.708L717.694 1091.31L706.174 1100H764.638L709.054 910.908L858.813 744.258L795.454 729.408L834.333 610.608L881.853 605.658L837.213 706.308L920.732 726.108L795.454 884.508L920.732 943.908L959.996 852.828V800.688L922.172 806.408L909.212 889.458L866.013 863.058L959.996 718.518V682.768L887.613 686.508L923.612 549.558Z" fill="#F6F7FB"/>
<path d="M493.051 318.559L533.371 340.009L737.849 214.61L573.786 79.9698L667.481 0H610.074L539.131 60.4999L519.355 48.0699L576.954 0H523.099L486.235 26.84L455.996 0H367.964L664.026 210.87L493.051 318.559Z" fill="#F6F7FB"/>
</mask>
<g mask="url(#mask0_2_3)">
<rect width="960" height="1100" fill="url(#paint0_linear_2_3)"/>
</g>
</g>
<defs>
<linearGradient id="paint0_linear_2_3" x1="480" y1="0" x2="480" y2="1100" gradientUnits="userSpaceOnUse">
<stop stop-color="#F7F7F7"/>
<stop offset="1" stop-color="white" stop-opacity="0"/>
</linearGradient>
</defs>
</svg>
