<svg width="218" height="30" viewBox="0 0 218 30" fill="none" xmlns="http://www.w3.org/2000/svg">
<g clip-path="url(#clip0_3633_3140)">
<path d="M66.2988 28.0632H61.0742V2.67529H66.2988V28.0632Z" fill="white"/>
<path d="M75.218 20.2649C75.7768 22.8759 78.1661 24.6175 81.3015 24.6175C83.5422 24.6175 85.3314 23.8203 86.3031 22.5148H91.6021C90.1844 26.2146 86.1903 28.609 81.0785 28.609C74.6592 28.609 69.8447 24.5105 69.8447 19.0343C69.8447 13.5581 74.6207 9.38745 81.0785 9.38745C87.5363 9.38745 92.2379 13.2692 92.2379 19.0343C92.2379 19.4329 92.2379 19.869 92.1636 20.2676H75.2208L75.218 20.2649ZM86.8619 17.7261C86.3389 15.1499 84.1367 13.4832 81.0785 13.4832C78.0202 13.4832 75.7795 15.1873 75.218 17.7261H86.8619Z" fill="white"/>
<path d="M113.844 28.0632L113.321 25.6689C111.416 27.5201 108.693 28.6063 105.52 28.6063C99.3232 28.6063 94.6602 24.5078 94.6602 19.0316C94.6602 13.5554 99.2874 9.38477 105.52 9.38477C108.655 9.38477 111.416 10.4361 113.321 12.3222L113.844 9.92784H118.471V28.0632H113.844ZM106.64 24.1092C110.596 24.1092 113.246 22.0413 113.246 19.0316C113.246 16.022 110.56 13.8444 106.64 13.8444C102.72 13.8444 99.8848 16.022 99.8848 19.0316C99.8848 22.0413 102.72 24.1092 106.64 24.1092Z" fill="white"/>
<path d="M128.472 28.0632H123.247V2.67529H128.472V16.7095H130.787L137.206 9.92783H144.074L135.527 18.9969L144.82 28.0659H137.729L130.751 21.319H128.474V28.0659L128.472 28.0632Z" fill="white"/>
<path d="M148.846 23.3494C150.413 23.3494 151.533 24.4382 151.533 25.9604C151.533 27.5923 150.413 28.6089 148.846 28.6089C147.167 28.6089 146.047 27.5923 146.047 25.9604C146.047 24.4382 147.167 23.3494 148.846 23.3494Z" fill="white"/>
<path d="M160.416 28.0632H155.191V9.92784H159.857L160.342 12.793C161.908 10.6903 164.262 9.38477 167.023 9.38477C170.717 9.38477 173.665 11.343 175.159 14.5346C176.616 11.3778 179.415 9.38477 182.848 9.38477C188.221 9.38477 192.067 13.5554 192.067 19.6122V28.0632H186.842V19.6122C186.842 16.3484 184.64 14.0637 181.504 14.0637C178.369 14.0637 176.241 16.3484 176.241 19.6122V28.0632H171.017V19.6122C171.017 16.3484 168.815 14.0637 165.679 14.0637C162.544 14.0637 160.416 16.3484 160.416 19.6122V28.0632Z" fill="white"/>
<path d="M200.98 20.2649C201.539 22.8759 203.928 24.6175 207.063 24.6175C209.301 24.6175 211.093 23.8203 212.065 22.5148H217.364C215.946 26.2146 211.952 28.609 206.84 28.609C200.421 28.609 195.606 24.5105 195.606 19.0343C195.606 13.5581 200.382 9.38745 206.84 9.38745C213.298 9.38745 218 13.2692 218 19.0343C218 19.4329 218 19.869 217.925 20.2676H200.982L200.98 20.2649ZM212.624 17.7261C212.101 15.1499 209.898 13.4832 206.84 13.4832C203.782 13.4832 201.541 15.1873 200.98 17.7261H212.624Z" fill="white"/>
<path d="M15.4344 0H33.2058C41.7254 0 48.6402 6.72017 48.6402 15C48.6402 23.2772 41.7254 30 33.2058 30H0V15C0 6.72017 6.91478 0 15.4344 0Z" fill="#30CA4B"/>
<path d="M21.1955 15C21.1955 16.1931 20.8183 17.3087 20.1797 18.2263C19.1172 19.7645 17.3086 20.7731 15.2579 20.7731C11.9794 20.7731 9.32031 18.1888 9.32031 15.0026C9.32031 11.8164 11.9794 9.23218 15.2579 9.23218C18.0684 9.23218 20.4302 11.1369 21.0386 13.6891C21.1432 14.1118 21.1982 14.5559 21.1982 15.0026L21.1955 15Z" fill="white"/>
<path d="M15.2581 9.22676C18.0686 9.22676 20.4304 11.1315 21.0387 13.6837C21.1433 14.1064 21.1984 14.5505 21.1984 14.9972C21.1984 16.1904 20.8213 17.3059 20.1826 18.2235C19.1201 19.7618 17.3116 20.7704 15.2608 20.7704C11.9824 20.7704 9.32325 18.1861 9.32325 14.9999C9.32325 11.8137 11.9824 9.22943 15.2608 9.22943M15.2608 7.948C11.2584 7.948 8.00195 11.1128 8.00195 15.0026C8.00195 18.8924 11.2584 22.0571 15.2608 22.0571C17.6832 22.0571 19.9322 20.8934 21.2782 18.9432C22.0875 17.7821 22.5169 16.4178 22.5169 15.0026C22.5169 14.4488 22.4509 13.9057 22.3215 13.3867C21.5617 10.1898 18.6549 7.95067 15.2581 7.95067L15.2608 7.948Z" fill="#212531"/>
<path d="M18.8061 18.5285C20.4465 18.5285 21.7763 17.2362 21.7763 15.6419C21.7763 14.0477 20.4465 12.7554 18.8061 12.7554C17.1657 12.7554 15.8359 14.0477 15.8359 15.6419C15.8359 17.2362 17.1657 18.5285 18.8061 18.5285Z" fill="#212531"/>
<path d="M16.5984 15.361C17.3387 15.361 17.9389 14.7777 17.9389 14.0582C17.9389 13.3387 17.3387 12.7554 16.5984 12.7554C15.858 12.7554 15.2578 13.3387 15.2578 14.0582C15.2578 14.7777 15.858 15.361 16.5984 15.361Z" fill="white"/>
<path d="M39.3195 15C39.3195 16.1931 38.9424 17.3087 38.3037 18.2263C37.2412 19.7645 35.4327 20.7731 33.3819 20.7731C30.1034 20.7731 27.4443 18.1888 27.4443 15.0026C27.4443 11.8164 30.1034 9.23218 33.3819 9.23218C36.1924 9.23218 38.5542 11.1369 39.1626 13.6891C39.2672 14.1118 39.3222 14.5559 39.3222 15.0026L39.3195 15Z" fill="white"/>
<path d="M33.3821 9.22676C36.1926 9.22676 38.5544 11.1315 39.1628 13.6837C39.2674 14.1064 39.3224 14.5505 39.3224 14.9972C39.3224 16.1904 38.9453 17.3059 38.3067 18.2235C37.2441 19.7618 35.4356 20.7704 33.3848 20.7704C30.1064 20.7704 27.4473 18.1861 27.4473 14.9999C27.4473 11.8137 30.1064 9.22943 33.3848 9.22943M33.3848 7.948C29.3824 7.948 26.126 11.1128 26.126 15.0026C26.126 18.8924 29.3824 22.0571 33.3848 22.0571C35.8072 22.0571 38.0562 20.8934 39.4022 18.9432C40.2115 17.7821 40.641 16.4178 40.641 15.0026C40.641 14.4488 40.5749 13.9057 40.4455 13.3867C39.6858 10.1898 36.7789 7.95067 33.3821 7.95067L33.3848 7.948Z" fill="#212531"/>
<path d="M36.9301 18.5285C38.5705 18.5285 39.9003 17.2362 39.9003 15.6419C39.9003 14.0477 38.5705 12.7554 36.9301 12.7554C35.2897 12.7554 33.96 14.0477 33.96 15.6419C33.96 17.2362 35.2897 18.5285 36.9301 18.5285Z" fill="#212531"/>
<path d="M34.7224 15.361C35.4628 15.361 36.063 14.7777 36.063 14.0582C36.063 13.3387 35.4628 12.7554 34.7224 12.7554C33.982 12.7554 33.3818 13.3387 33.3818 14.0582C33.3818 14.7777 33.982 15.361 34.7224 15.361Z" fill="white"/>
</g>
<defs>
<clipPath id="clip0_3633_3140">
<rect width="218" height="30" fill="white"/>
</clipPath>
</defs>
</svg>
