<svg width="18" height="18" viewBox="0 0 18 18" fill="none" xmlns="http://www.w3.org/2000/svg">
<path d="M7.6875 2.25C4.69333 2.25 2.25 4.69334 2.25 7.6875C2.25 10.6817 4.69333 13.125 7.6875 13.125C8.91494 13.125 10.0458 12.7099 10.9578 12.019L14.4697 15.5303C14.5388 15.6023 14.6216 15.6597 14.7132 15.6993C14.8048 15.7389 14.9034 15.7598 15.0032 15.7608C15.1029 15.7619 15.2019 15.7429 15.2943 15.7052C15.3867 15.6675 15.4706 15.6117 15.5412 15.5412C15.6117 15.4706 15.6675 15.3867 15.7052 15.2943C15.7429 15.2019 15.7619 15.1029 15.7608 15.0032C15.7598 14.9034 15.7389 14.8048 15.6993 14.7132C15.6597 14.6216 15.6023 14.5388 15.5303 14.4697L12.019 10.9578C12.7099 10.0458 13.125 8.91494 13.125 7.6875C13.125 4.69334 10.6817 2.25 7.6875 2.25ZM7.6875 3.75C9.87101 3.75 11.625 5.504 11.625 7.6875C11.625 8.73589 11.2178 9.68273 10.5557 10.3865C10.4912 10.4331 10.4346 10.4898 10.3879 10.5542C9.68404 11.2172 8.73664 11.625 7.6875 11.625C5.50399 11.625 3.75 9.87101 3.75 7.6875C3.75 5.504 5.50399 3.75 7.6875 3.75Z" fill="#6F7997"/>
</svg>
