<svg width="20" height="20" viewBox="0 0 20 20" fill="none" xmlns="http://www.w3.org/2000/svg">
<path opacity="0.5" d="M9.99992 15.8333C7.97214 15.8333 6.12492 15.2673 4.45825 14.1353C2.79159 13.0034 1.58325 11.486 0.833252 9.58325C1.58325 7.68047 2.79159 6.16311 4.45825 5.03117C6.12492 3.89922 7.97214 3.33325 9.99992 3.33325C12.0277 3.33325 13.8749 3.89922 15.5416 5.03117C17.2083 6.16311 18.4166 7.68047 19.1666 9.58325C18.4166 11.486 17.2083 13.0034 15.5416 14.1353C13.8749 15.2673 12.0277 15.8333 9.99992 15.8333ZM9.99992 14.1666C11.5694 14.1666 13.0103 13.7534 14.3228 12.927C15.6353 12.1006 16.6388 10.986 17.3333 9.58325C16.6388 8.18047 15.6353 7.06589 14.3228 6.2395C13.0103 5.41311 11.5694 4.99992 9.99992 4.99992C8.43047 4.99992 6.9895 5.41311 5.677 6.2395C4.3645 7.06589 3.36103 8.18047 2.66659 9.58325C3.36103 10.986 4.3645 12.1006 5.677 12.927C6.9895 13.7534 8.43047 14.1666 9.99992 14.1666Z" fill="#FFD059"/>
<path d="M10 13.3335C11.0417 13.3335 11.9271 12.9689 12.6563 12.2397C13.3854 11.5106 13.75 10.6252 13.75 9.5835C13.75 8.54183 13.3854 7.65641 12.6563 6.92725C11.9271 6.19808 11.0417 5.8335 10 5.8335C8.95833 5.8335 8.07292 6.19808 7.34375 6.92725C6.61458 7.65641 6.25 8.54183 6.25 9.5835C6.25 10.6252 6.61458 11.5106 7.34375 12.2397C8.07292 12.9689 8.95833 13.3335 10 13.3335ZM10 11.8335C9.375 11.8335 8.84375 11.6147 8.40625 11.1772C7.96875 10.7397 7.75 10.2085 7.75 9.5835C7.75 8.9585 7.96875 8.42725 8.40625 7.98975C8.84375 7.55225 9.375 7.3335 10 7.3335C10.625 7.3335 11.1563 7.55225 11.5938 7.98975C12.0313 8.42725 12.25 8.9585 12.25 9.5835C12.25 10.2085 12.0313 10.7397 11.5938 11.1772C11.1563 11.6147 10.625 11.8335 10 11.8335Z" fill="#FFD059"/>
</svg>
